<?xml version="1.0" encoding="utf-8"?>
<!-- Svg Vector Icons : http://www.onlinewebfonts.com/icon -->
<!DOCTYPE svg PUBLIC "-//W3C//DTD SVG 1.1//EN" "http://www.w3.org/Graphics/SVG/1.1/DTD/svg11.dtd">
<svg version="1.1" xmlns="http://www.w3.org/2000/svg" xmlns:xlink="http://www.w3.org/1999/xlink" x="0px" y="0px" viewBox="0 0 1000 1000" enable-background="new 0 0 1000 1000" xml:space="preserve">
<metadata> Svg Vector Icons : http://www.onlinewebfonts.com/icon </metadata>
<g><g transform="translate(0.000000,511.000000) scale(0.100000,-0.100000)"><path d="M4910.2,4968.1c-49-38.8-53.1-53.1-53.1-194v-151.1h-57.2c-98,0-294-59.2-453.3-136.8c-194-93.9-396.1-289.9-488-471.6c-175.6-349.1-157.2-790.1,42.9-1033.1c110.2-134.8,271.5-222.5,626.8-336.9l328.7-108.2v-528.8v-528.8l-79.6,38.8c-138.8,71.5-257.2,226.6-332.8,436.9c-106.2,298.1-240.9,410.4-432.8,359.3c-114.3-30.6-171.5-73.5-218.5-163.3c-83.7-167.4-63.3-390,57.2-618.6c142.9-269.5,492-510.4,839.1-577.8l167.4-32.7v-149c0-134.8,4.1-151.1,53.1-189.9c69.4-53.1,110.3-53.1,179.7,0c49,38.8,53.1,55.1,53.1,189.9v147l149,24.5c306.3,53.1,645.2,269.5,798.3,512.5c118.4,187.8,161.3,341,163.3,573.7c0,267.5-44.9,396.1-196,563.5c-128.6,140.9-232.7,194-608.4,314.4l-296,93.9l-6.1,524.7c-6.1,586-10.2,569.6,132.7,465.5c124.5-89.8,183.8-179.7,269.5-410.4c89.8-234.8,120.4-275.6,240.9-330.8c155.2-69.4,322.6,0,410.4,169.5c40.8,77.6,47,112.3,38.8,247c-22.5,447.1-420.6,826.9-973.9,937.1l-122.5,24.5v149c0,134.8-4.1,151.1-53.1,189.9c-30.6,24.5-69.4,42.9-89.8,42.9C4979.6,5011,4940.8,4992.6,4910.2,4968.1z M4848.9,3118.4c-16.3-18.4-232.7,93.9-308.3,159.3c-96,85.7-132.7,169.5-132.7,308.3c2,222.5,163.3,424.7,387.9,485.9l51,12.3l6.1-477.7C4855,3343,4855,3122.5,4848.9,3118.4z M5402.2,2311.9c161.3-108.2,218.5-273.6,161.3-467.5c-38.8-138.8-130.7-251.1-259.3-314.4c-171.5-87.8-161.3-112.3-161.3,428.8v479.8l87.8-34.7C5277.7,2385.4,5355.3,2344.6,5402.2,2311.9z"/><path d="M8097.2,1319.7c-61.3-67.4-40.8-153.1,85.8-373.6c67.4-116.4,120.4-212.3,118.4-214.4C8281,711.3,6363.8-419.8,6353.6-419.8s-563.5,281.7-1231.1,624.8c-908.5,467.5-1239.3,626.8-1308.7,635c-89.8,10.2-153.1-18.4-1825.2-849.3c-953.5-473.7-1755.8-882-1784.4-906.5C149-967,100-1071.1,100-1138.5c0-24.5,18.4-83.7,42.9-130.7c44.9-96,165.4-171.5,275.6-171.5c38.8-2,635,285.8,1708.9,820.7l1649.7,822.8l494.1-251.1c271.5-136.8,833-422.6,1245.4-635c412.4-212.3,775.8-389.9,806.5-396.1s87.8,0,126.6,14.3c38.8,14.3,537,302.2,1106.6,641.1C8125.8-85,8597.4,192.7,8607.6,192.7c8.2-2,71.5-100,140.9-220.5c91.9-163.3,138.9-222.5,179.7-238.9c110.2-38.8,142.9,2,559.4,724.8c216.4,375.7,398.1,706.4,404.2,730.9c10.2,32.7,0,67.4-26.5,102.1l-40.8,55.1l-847.3,6.1C8176.8,1356.4,8127.8,1354.4,8097.2,1319.7z"/><path d="M8093.1-572.9l-51-49v-2029.4c0-1968.2,2-2033.5,38.8-2078.4l38.8-49l812.6-6.1c863.6-6.1,902.4-2.1,945.3,89.8c16.3,36.8,22.5,606.4,22.5,2041.7c0,2115.2,2,2082.5-91.9,2119.3c-18.4,6.1-400.2,12.2-849.3,12.2h-816.7L8093.1-572.9z"/><path d="M2805.2-1103.8l-51-49v-1764c0-1706.8,2-1768.1,38.8-1813l38.8-49l826.9-6.1l826.9-6.1l59.2,51l57.2,49v1770.1v1770.1l-57.2,49l-57.2,49h-816.7h-816.7L2805.2-1103.8z"/><path d="M5447.1-1867.4l-49-38.8l-6.1-1382.2l-4.1-1380.2l59.2-61.3l61.3-61.3l828.9,6.1l831,6.1l38.8,49c36.8,44.9,38.8,100,38.8,1429.2v1384.2l-47,42.9c-47,44.9-53.1,44.9-875.9,44.9C5537-1828.6,5492.1-1830.6,5447.1-1867.4z"/><path d="M210.3-2277.7C98-2322.7,100-2294.1,100-3517c0-794.2,6.1-1141.3,22.5-1178c42.9-91.9,81.7-95.9,945.3-89.8l812.6,6.1l38.8,49c36.7,44.9,38.8,95.9,38.8,1196.4c0,632.9-6.1,1165.8-12.3,1184.2c-34.7,85.8-87.8,91.9-910.6,89.8C604.3-2259.4,232.7-2267.5,210.3-2277.7z"/></g></g>
</svg>