<?xml version="1.0" encoding="utf-8"?>
<!-- Svg Vector Icons : http://www.onlinewebfonts.com/icon -->
<!DOCTYPE svg PUBLIC "-//W3C//DTD SVG 1.1//EN" "http://www.w3.org/Graphics/SVG/1.1/DTD/svg11.dtd">
<svg version="1.1" xmlns="http://www.w3.org/2000/svg" xmlns:xlink="http://www.w3.org/1999/xlink" x="0px" y="0px" viewBox="0 0 1000 1000" enable-background="new 0 0 1000 1000" xml:space="preserve">
<metadata> Svg Vector Icons : http://www.onlinewebfonts.com/icon </metadata>
<g><g transform="translate(0.000000,511.000000) scale(0.100000,-0.100000)"><path d="M100,2721.7V1014.4l2612.7-2612.7L5325.4-4211l1707.3,1709.3L8742-794.4L6129.3,1818.3L3516.6,4431H1809.3H100V2721.7z M5842.2,1665.2L8301.8-794.4L6812.6-2281.6L5325.4-3770.8L2865.8-1311.2L406.2,1148.4v1487.2v1489.1h1489.1h1487.2L5842.2,1665.2z"/><path d="M2031.3,3179.2c-317.7-88-595.3-369.4-679.5-689.1c-156.9-589.5,421.1-1209.7,1027.9-1106.3c377.1,65.1,702.5,390.5,767.5,767.5C3252.5,2761.9,2622.7,3341.9,2031.3,3179.2z M2513.6,2838.5c132.1-59.3,220.1-149.3,283.3-283.3c70.8-151.2,70.8-384.7,0-535.9c-63.2-134-151.2-222-285.2-285.2c-88-42.1-132.1-49.8-268-49.8s-179.9,7.7-268,49.8c-134,63.2-224,151.2-283.3,283.3c-91.9,202.9-72.7,447.9,51.7,633.6C1897.3,2878.7,2241.8,2962.9,2513.6,2838.5z"/><path d="M4674.6,4268.3L4569.3,4163L7048,1684.3L9526.8-794.4L7980.2-2341L6435.5-3885.6l101.4-101.4c55.5-53.6,109.1-99.5,118.7-99.5c11.5,0,744.6,725.4,1632.7,1613.6C9810-951.3,9900-857.6,9900-794.4s-134,201-2551.4,2618.4C5947.5,3225.1,4795.2,4373.6,4789.5,4373.6S4732,4325.7,4674.6,4268.3z"/></g></g>
</svg>